# xmcd
#
# Track frame offsets:
#	150
#	17902
#	39241
#	58247
#	76819
#	93978
#	111969
#	132028
#	151172
#	167587
#	185765
#
# Disc length: 2814 seconds
#
# Revision: 2
# Processed by: cddbd v1.5.2PL0 Copyright (c) Steve Scherf et al.
# Submitted via: audiograbber 1.83.01
#
DISCID=830afc0b
DTITLE=Kari Bremnes - Det vi har
DYEAR=2017
DGENRE=Folk
TTITLE0=Det kunne skjedd
TTITLE1=Glem ikkje
TTITLE2=Det e min sønn
TTITLE3=Kanskje
TTITLE4=Rim sin stemme
TTITLE5=Det må være orden
TTITLE6=Det einaste vi ville
TTITLE7=Tog vi ikkje tok
TTITLE8=Det som ennu ikkje har et navn
TTITLE9=En sang fra andre sia
TTITLE10=Spor
EXTD=
EXTT0=
EXTT1=
EXTT2=
EXTT3=
EXTT4=
EXTT5=
EXTT6=
EXTT7=
EXTT8=
EXTT9=
EXTT10=
PLAYORDER=
